<svg version="1.1" id="Layer_1" xmlns="http://www.w3.org/2000/svg" x="0" y="0" viewBox="0 0 250 70" xml:space="preserve"><style>.st0{fill:#1a6ab2}.st2{fill-rule:evenodd;clip-rule:evenodd;fill:#fff}.st6{fill:#5a5a5c}</style><path class="st0" d="M97.5 42.2L95 39.7v7.4h4.8v-7.2z"/><radialGradient id="SVGID_1_" cx="97.616" cy="37.755" r="20.32" gradientUnits="userSpaceOnUse"><stop offset="0" stop-color="#fff"/><stop offset=".254" stop-color="#82d2e3"/><stop offset=".73" stop-color="#006fa8"/></radialGradient><path fill="url(#SVGID_1_)" d="M87.9 32.1l9.6 9.5 16.4-16.2h-6.6l-9.7 9.9-3.6-3.2z"/><path class="st0" d="M112.7 47.1L104.8 35l-3.6 3.5 5.7 8.6zM95 25.4v7l2.6 2.3 2.2-2.3v-7z"/><g><path class="st0" d="M123.5 40.4h-4.1v6.7h-4V30h16.5c1 0 1.6.8 1.6 2.3v6.3c0 1.1-.6 1.7-1.7 1.8H129l6.2 6.7h-5.5l-6.2-6.7zm-4.1-4.1h9.7c.4 0 .6-.3.6-1v-.7c0-.7-.2-1-.6-1h-9.7v2.7zM146.9 47.1v-7.5l-8.7-9.6h6.4l4.6 5 4.6-5h6.4l-8.7 9.6v7.5h-4.6zM162.5 47.1V30H179v3.5h-12.5v3.1h7.3v3.7h-7.3v6.8h-4zM180.9 33.5V30h19v3.5h-7.3v13.6H188V33.5h-7.1zM220.4 44.7c0 1.5-.9 2.3-2.8 2.4h-13.1c-1.4 0-2.1-.8-2.3-2.5V32c0-1.3 1-1.9 3-2h12.4c1.7 0 2.7.7 2.8 2v12.7zm-3.8-1.2v-9.8H206v9.8h10.6zM227.8 35.8v11.3h-3.9V30h3.9L240 41V30h3.9v17.1H240l-12.2-11.3z"/></g><g><path class="st0" d="M55.8 13.4s-.1 6.8-9.8 17.4l4.4 4.4s6.4-7.2 16.7-9.3l.8-.6s1.3-2.6-13.3 1.7l-.6-.5c.1-.1 4.5-11.4 1.8-13.1z"/><path class="st0" d="M56.9 21.7c-.9.9-1.4 2.6-.7 3.3s2.4.1 3.3-.7c.9-.9 1-2.1.3-2.8-.7-.8-2-.7-2.9.2zM16.2 53s6.8-.1 17.4-9.8l4.4 4.4s-7.2 6.4-9.3 16.7l-.7.8s-2.6 1.3 1.7-13.3l-.5-.6c0 .1-11.3 4.5-13 1.8z"/><path class="st0" d="M24.4 54.2c.9-.9 2.6-1.4 3.3-.7.7.7.1 2.4-.7 3.3-.9.9-2.1 1-2.8.3-.7-.8-.6-2.1.2-2.9zM67.7 53s-6.8-.1-17.4-9.8L46 47.5s7.2 6.4 9.3 16.7l.5.9s2.6 1.3-1.7-13.3l.5-.6c.1.1 11.5 4.5 13.1 1.8z"/><path class="st0" d="M59.5 54.2c-.9-.9-2.6-1.4-3.3-.7s-.1 2.4.7 3.3c.9.9 2.1 1 2.8.3.8-.8.6-2.1-.2-2.9zM28.2 13.4s.1 6.8 9.8 17.4l-4.4 4.4s-6.4-7.2-16.7-9.3l-.8-.6s-1.3-2.6 13.3 1.7l.6-.5c-.1-.1-4.6-11.4-1.8-13.1z"/><path class="st0" d="M27 21.7c.9.9 1.4 2.6.7 3.3-.7.7-2.4.1-3.3-.7-.9-.9-1-2.1-.3-2.8.8-.8 2-.7 2.9.2z"/><g><path class="st0" d="M50.4 67.2s-4.7-4.9-5.3-19.2h-6.2s.6 9.6-5.2 18.4l-.2 1s.9 2.7 8.2-10.6h.7c0-.1 4.9 11.1 8 10.4z"/><path class="st0" d="M43.7 62.2c0-1.2-.8-2.8-1.8-2.8s-1.8 1.6-1.8 2.8.8 2.2 1.8 2.2 1.8-1 1.8-2.2z"/></g><g><path class="st0" d="M50.4 11.2s-4.7 4.9-5.3 19.2h-6.2s.6-9.6-5.2-18.4l-.2-1s.9-2.7 8.2 10.6h.7s4.9-11.2 8-10.4z"/><path class="st0" d="M43.7 16.2c0 1.2-.8 2.8-1.8 2.8s-1.8-1.6-1.8-2.8C40.2 15 41 14 42 14s1.7 1 1.7 2.2z"/></g><g><path class="st0" d="M69.9 30.7S65 35.4 50.7 36v6.2s9.6-.6 18.4 5.2l1 .2s2.7-.9-10.6-8.2v-.7s11.2-4.9 10.4-8z"/><path class="st0" d="M64.9 37.4c-1.2 0-2.8.8-2.8 1.8s1.6 1.8 2.8 1.8 2.2-.8 2.2-1.8-.9-1.8-2.2-1.8z"/></g><g><path class="st0" d="M14 30.7s4.9 4.7 19.2 5.3v6.2s-9.6-.6-18.4 5.2l-1 .2s-2.7-.9 10.6-8.2v-.7s-11.2-4.9-10.4-8z"/><path class="st0" d="M19 37.4c1.2 0 2.8.8 2.8 1.8S20.2 41 19 41s-2.2-.8-2.2-1.8 1-1.8 2.2-1.8z"/></g><path class="st2" d="M42 35.6c.2 0 .4.2.4.4s-.2.4-.4.4-.4-.2-.4-.4c-.1-.2.1-.4.4-.4z"/><g><path class="st2" d="M42 50.4c-6.2 0-11.3-5.1-11.3-11.3s5-11.2 11.3-11.2S53.2 33 53.2 39.2s-5 11.2-11.2 11.2z"/><radialGradient id="SVGID_2_" cx="1615.514" cy="2193.643" r="411.407" gradientTransform="translate(-16.271 -47.589) scale(.0378)" gradientUnits="userSpaceOnUse"><stop offset="0" stop-color="#fff"/><stop offset=".254" stop-color="#82d2e3"/><stop offset=".73" stop-color="#006fa8"/><stop offset="1" stop-color="#82d2e3"/></radialGradient><path d="M42 29c5.6 0 10.1 4.5 10.1 10.1S47.6 49.3 42 49.3s-10.1-4.5-10.1-10.1C31.8 33.6 36.4 29 42 29z" fill-rule="evenodd" clip-rule="evenodd" fill="url(#SVGID_2_)"/><path d="M47.5 31h-.4-.1-.1.6c-.1-.1-.1-.1 0 0zm1.3 1.1l.2.2c-.2.1-.5 0-.7-.1 0 .1.1 0 .1.1.1 0 .1 0 .1.1l.1.1c.1 0 .2.1.3.1-.1 0-.1 0-.1-.1 0 0 .1 0 .1.1h.2c0-.1-.1-.1-.1-.1s.1 0 .1-.1c.6.7 1.2 1.5 1.6 2.3h-.1c-.1 0-.2.1-.2.1h-.1c0 .1 0 .1-.1.1l.1.1c0 .2.2.2.3.4h0v.1s0 .1 0 0c0 .2 0 .2.2.2.1 0 .1.1.2.1s.1-.1.2 0c0-.1-.1-.2 0-.3h-.1v-.1H51c0-.1-.1-.2-.1-.3h-.1s0-.1-.1 0c0-.1-.1-.1-.1-.1h-.1.1c0-.1.1-.1.1 0 .3.7.6 1.5.8 2.3h-.1.1s-.1 0-.1.1h-.1-.1c-.1-.1-.3-.1-.3-.3 0-.1-.1-.1-.1-.1h-.1-.1-.1-.1c0 .1.1.1.1.2 0 0 .1 0 .1.1v.1c0 .1.1.1.1.2v-.2.2h.2l.3-.3c0 .1 0 .1.1.2 0 .2.1.5.1.7l-.1.1c0 .2-.3.1-.4.2v.1c-.1.1-.3.1-.4.2-.1 0-.3.1-.4.2h-.2c-.1-.1 0-.3-.1-.3 0-.1 0-.2-.1-.2-.1-.1-.1-.3-.3-.4-.2-.1 0-.4-.3-.5-.1-.2-.2-.3-.3-.5h-.1v-.2c0 .1 0 .2-.1.2s-.1-.2-.2-.3c.2.2.2.5.4.7 0 .1.1.2.2.2 0 .1.1.1 0 .1v.3c.2.1.2.3.3.5v-.1.1c.1.1.3.2.3.4h-.1.1c0 .1.1.1.1.2.1 0 .2 0 .3-.1.2 0 .3-.1.4-.1v.2c0 .1-.1.2-.1.3-.1.6-.7.8-.9 1.3l-.1.1c0 .2-.3.4-.1.5-.1.1 0 .3 0 .4h.1v.5c0 .3-.4.3-.5.6-.1 0-.1.1-.2.1v.1c.1.1.1.1.1.2v.2c0 .2-.3.1-.3.3 0 .1 0 .3-.1.4-.2.2-.3.5-.6.6h-.1-.4c-.1 0-.2 0-.2.1 0 0-.1 0-.1-.1h-.1c0-.1 0-.2-.1-.2 0-.3-.2-.5-.3-.8 0-.1-.1-.3-.1-.5-.1-.3-.3-.5-.3-.9.1-.1.1-.3.1-.4.2-.1 0-.3 0-.5 0-.1-.1-.2-.1-.3 0-.2-.3-.4-.3-.6v-.1-.1-.1-.1c.1-.1.1-.3 0-.4v-.1h-.1c-.1.1-.2 0-.2-.1 0-.2-.4-.2-.5-.1-.1 0-.2.1-.3.1-.2-.1-.5-.1-.6.1-.3-.1-.3-.3-.6-.4 0 0 0-.1-.1-.1 0-.1-.2-.1-.2-.3v-.1H43s0-.1-.1-.1v-.1s0-.1-.1-.2c.2-.1.2-.5.1-.7v-.1-.1c0-.2.1-.3.2-.4.1-.1.1-.2.2-.3.1 0 .1-.1.2-.2.2 0 .4-.2.3-.3 0-.4.4-.3.5-.7 0 .1.2.1.3.1.1.1.2-.1.3 0 .1-.1.4-.2.6-.1 0 0 .1 0 .1-.1h.2c.1 0 .2-.1.3 0v.1h.1s0 .1-.1.1c0 .1 0 .1.1.1 0 .1-.1.1-.1.2v.2c.1 0 .1.1.2 0 .1 0 .1.1.2.1 0 .2.3.1.4.3.1 0 .1 0 .1-.1-.1-.2.2-.3.3-.2 0 .1.1.1.2.1v.1c.2 0 .3.1.5.1.1 0 .1-.1.2-.1h.1c.2.1.3-.3.4-.4-.2 0-.2-.1-.2-.1v-.1h-.1-.1s-.1 0-.1.1c-.1.1-.2-.1-.4-.1v.1h-.1-.1-.1-.1-.1 0s-.1 0 0 0h-.1 0v-.1h0-.2-.1s-.1 0 0-.1c-.1.1.1.1 0 .2h.1v.1h-.1v.1h-.1s0 .1.1.1h-.1s0-.1-.1-.1c0 0-.1-.1 0-.1l-.1-.1.1-.1h-.1v-.1l-.1-.1h-.1s-.1 0-.1-.1v-.2c-.1 0-.1-.1-.2-.1H46h-.1l-.1-.1v-.1-.1h-.1-.1c0 .1.1.1.1.2s.1.2.3.2c.1.1.2.1.3.2l-.1-.1h-.1c-.1 0-.1 0-.1.1h.1v.1H46s-.1 0 0 .1c0 0-.1.1 0 .1-.1 0-.2-.1-.3-.1v-.1c.1.1.2 0 .2 0v-.1c0-.1 0 0 0 0s0-.1-.1-.2h-.1v-.1-.1h-.1c-.1 0-.1-.1-.2-.1 0 0 0-.1-.1-.1v-.1s-.1 0-.1-.1c-.1.1-.3.2-.5.1-.1 0-.1.1-.1.2v.1c-.1.1-.2.1-.3.1-.1 0-.2.2-.1.2 0 0-.1.1-.1.2-.1 0-.1 0-.2.1-.1 0-.3 0-.4.1-.1 0-.1-.2-.2-.1h-.1v-.2c.1-.1.1-.3.1-.5.1-.2.5 0 .7-.1.1.1.2-.1.2-.2v-.1c.1-.1 0-.1-.1-.1v-.1c0-.1 0 0 0 0H44s-.1-.1-.1 0c0-.1.1 0 .2-.1h.1v-.1h.2c.1 0 .2 0 .1-.1.1 0 .2 0 .2-.1.1 0 .1-.1.1-.2 0 0 .1 0 .1-.1h.2v-.1h.1v-.1-.1-.1c0-.1.2-.1.2-.1v.1h.1s0 .1-.1.1h.1v.1h-.1.2s0 .1-.1 0h.1s.1-.1.2-.1c.1.1.3-.1.5-.1 0 .1.2.1.1 0 .1 0 .1-.1.1-.2 0 0 0-.1.1-.1 0 0 .1.1.2.1v-.1h-.1s0-.1-.1-.1h1.6s-.1 0-.2-.1c-.2 0-.3 0-.5.1v-.1h-.1c0-.1 0-.2-.1-.2v-.1h.1l.2-.2c0-.1-.2-.1-.2-.1-.1 0-.1 0-.1.1-.1.1-.2.1-.2.2 0 0 0 .1 0 0v.1h.1s.1 0 .1.1h-.1s-.1 0-.1.1H47v.1c0 .1 0 .1-.1.2h-.1-.1v.1h-.1.2c-.1-.1-.2-.2-.2-.3h-.1c0 .1-.2.2-.3.1 0 0-.1 0-.1-.1H46v-.1-.1h.2c0-.1.1 0 .1 0 .1 0 .1-.1.2-.1h.1s0-.1.1-.1h.1l.1-.1h-.1.2s.1 0 .1-.1H47h.1s.1 0 .2-.1h.2s.1 0 .1-.1h.1l-.1.1.1-.1v.1h.2c.1 0 .1 0 .2.1H48h.1s.1 0 0 0c.4-.5.5-.4.7-.3zm-16 2.2l.1-.1h.1v.1h.1v.1c-.1 0-.2 0-.3-.1.1 0 .1.1 0 0 .1 0 .1 0 0 0 .1 0 .1 0 0 0 .1 0 .1 0 0 0zm.2-.2c0-.1.1-.1.1-.2.5-.7 1-1.4 1.6-2h.5c.1 0 .1 0 0 .1.1 0 .1 0 .1-.1h-.1c.1 0 .3-.1.3 0 .1 0 .3 0 .4.1-.1 0-.1 0-.2.1h.6V32c.1 0 .2-.1.3-.1h.1c.1.1.3 0 .4 0h0c0-.1.1 0 .1-.1s.1 0 .2 0c-.1 0-.1.1-.2 0h.1l-.1.1c0-.1.2-.1.3-.2h-.1s.1 0 .1-.1h-.1s0-.1.1-.1l.1-.1h.2c0-.1.1-.2.2-.2h.4c-.1 0-.2.1-.4.1 0 .1-.1.1-.1.1h.1v.1s0 .1 0 0h-.1-.1 0v.1c.1 0 .1-.1.2-.1V31.8h.2c.1 0 .1-.1.2-.1v-.1H38.5v.1c-.1.1-.2.1-.3.1v.1h-.1-.1-.1-.1c-.1 0-.1.1-.2.1-.1.1-.2.2-.3.1 0 .1-.1.1-.2 0h.1c0 .1-.1.1-.2.1 0 0-.1 0-.1.1 0 0-.1 0-.1.1-.1 0-.2.1-.2.2h-.1v.2h.1c0 .1 0 .2-.1.2.1 0 .3 0 .4.1.1 0 .2 0 .2.1h.3c-.1.1-.1.2-.1.3v.1l.1.1h.1s0-.1.1-.1c0-.1.1-.1.1-.1 0-.1.1-.2.1-.2v-.1c.2 0 .7-.3.4-.5 0-.1.1-.1.2-.2v-.1l.1-.1c.1-.2.3 0 .5-.1h.1l.1.1h.2c0 .1-.1.1-.1.1v.1h.1s0 .1 0 0c.1 0 .1-.1.2-.1s.1-.1.1-.1c.1 0 .1 0 .1-.1 0 0 .1 0 0 0h.1v.1h.1v.1h.4v.1c-.1.1-.3.1-.4.2-.1.1-.2.1-.3.1h-.5c-.1.1-.3.2-.5.2 0 .1-.1.1-.2.2.2-.1.5-.3.8-.3v.1c-.1 0-.1.1-.2 0h.2l-.1.1v.1H39.5c0-.1.1-.1.2-.2v.1h.1s-.1.1-.2 0c-.1 0-.2.1-.3.1h-.1c0 .1-.1.1-.2.1h-.1v-.1c.1 0 .1-.1.2-.1h0s.1 0 .1-.1c-.1 0-.2.1-.3.1 0 0-.1.1-.1 0l-.1.1h-.1c-.1 0-.1.1-.2.2v.1h-.1-.1c-.1 0-.2 0-.3.1h.2c-.1 0-.2.1-.3.1 0 .1-.1.2-.2.2v-.1.1s0 .1-.1.1-.1.1-.1.1 0-.1.1-.1v-.1l.1-.1c-.1 0-.1.1-.1.2v.2h-.1l-.1.1s-.2 0-.2.1c-.1 0-.2.1-.2.1l-.1.1c-.3.1 0 .7-.2.9s-.1 0-.1 0v-.1-.1-.1-.1c.1-.2 0-.4-.2-.2v-.1h-.1-.1-.1v-.1c-.1 0-.2.1-.2 0h.1s.1 0 .1.1v-.1.1h-.4s-.1.1-.2.1c0 0-.1 0-.1.1v.2c0 .1 0 .2-.1.3 0 .1-.1.3 0 .4v-.1c0 .1.1.2.1.3 0 0 .1 0 .1.1.1 0 .2-.1.3-.1h.1c.1 0 .1-.1.1-.1 0-.2.3-.2.4-.2.1.1-.1.2-.1.2s0 .1-.1.1V36c0 .1 0 .2-.1.3H36.3c.1 0 .1.1.2.1 0 .1 0 .3-.1.4v.1c0 .1.1.2.2.2s.2-.1.2-.1h.1c.1 0 .2.1.2.2v-.1c.1 0 .1-.1.2-.1 0-.1 0-.1.1-.2v-.1c.1 0 .2 0 .2-.1h.2l-.1.1v.1s.1-.1.2-.1v-.1.1c.1 0 .2.1.2.1h.2c.1.1.2 0 .3 0h-.1H38.7v.1h.1s.1 0 .1.1v.2c.1 0 .3.1.2.2.1 0 .1.1.2.1h.2c.2 0 .3.1.4.2v.1c.1 0 0 .2.1.3h.1v.1H40v.1h0v-.1c-.1 0-.1.1-.1.1v-.1h.2c0 .1-.1.2-.2.2h.1v.1l.1-.1c0-.1.1-.1.1-.1s.1.1.1 0l.1.1v.1s0-.1.1-.1c0 0 .1-.1.1 0 .1 0 .1.1.2 0 .1 0 .3 0 .4.1 0 .1.1.1.1.2h.1c.2-.1.2.2.2.3 0 .2-.1.3-.2.4-.1.1-.1.2-.2.3v.7c-.1.1 0 .3-.2.4v.1s-.1 0-.1.1h-.2s-.1 0 0 0h-.1-.1c-.1 0 0 0 0 0-.1 0-.2.1-.2.2v.5c-.2.1-.1.4-.3.4 0 .1-.1.2-.1.3 0 0-.1 0-.1.1h-.2s-.1 0-.1-.1h-.1s-.1 0-.1-.1c0 .1.1.1.2.2 0 0 0 .1.1.1.1.1 0 .1 0 .2-.1.1-.3.1-.5.1l.1.1v.1c0 .1-.2 0-.3 0 0 0 0 .2.1.2v.1h-.1-.1.1s-.1 0-.1.1.1.1 0 .1h-.1c-.1.2.2.2.2.3 0 0-.1.1-.1.2.1.1 0 .1-.1.1 0 .1.1.2.2.2h-.1s.1.1.1 0c0 0 .1 0 .1.1.1.1.2.2.4.2h-.2-.1s.1 0 .1.1h-.1s-.1 0-.1-.1h-.1-.1.1c-.1 0-.1-.1-.2 0h-.1s-.2 0-.2-.1c0 0 .1 0 .2.1 0 0-.1 0-.1-.1h0s-.1 0-.1-.1h-.1-.1v0h-.1v-.1h0v-.1s.1 0 .1.1c0 0 0-.1 0 0h-.1v-.1H38h-.1l.1-.1h.1v-.1.1s0 .1.1.1v-.1h.1s0-.1-.1-.1v-.2s0 .1 0 0v.1h-.1v-.2c-.1-.1-.1-.1-.1-.2.1-.1-.1-.2-.1-.4v-.1c0-.3 0-.5-.1-.8.1-.1-.1-.2 0-.3v-.5-.1c0-.2 0-.6-.2-.7-.2-.2-.5-.2-.6-.5 0-.1-.1-.2-.2-.3-.1-.2-.2-.6-.4-.7v-.1c-.1-.1.1-.2.1-.3 0-.1-.1-.1-.1-.1v-.2s.1 0 0-.1c0 0 .1-.1 0-.1 0 0 .1 0 .1-.1h.1v-.1h.1V38s0-.1.1-.1v-.2-.1c0-.1-.1-.1-.1-.2 0-.2-.2 0-.2 0v.1h-.1-.1-.1-.1s0-.1-.1-.1h-.1c.1-.1 0-.1-.1-.1 0 0 0-.1-.1-.1 0 0-.1 0-.1-.1V37c-.1-.1-.1-.2-.2-.2h-.2c-.2-.1-.3-.2-.4-.3 0 0-.1 0 0 0-.1.1-.3.1-.5 0-.1 0-.3-.1-.3-.2h-.2c0-.1-.2-.1-.2-.3v-.1c-.1-.1-.1-.3-.2-.4v-.1s-.1 0-.1-.1c-.1 0-.1-.1 0-.1 0-.1-.1-.1 0-.1h-.1c0-.1-.1-.1-.1-.1v-.1-.2c0-.1-.1 0-.1-.1-.2.2.1.4.1.6 0 0 .1.1 0 .1v.1s-.1.1 0 .1c0 .1 0 .1-.1.1 0-.1-.1-.1-.2-.2.1-.1 0-.2 0-.3h-.1s0-.1-.1-.1v-.1h.1v-.1c0-.1-.2-.1-.1-.2-.1-.1 0-.4-.1-.5 0-.1-.1-.1-.2-.1.1-.1 0-.1 0-.2.1-.1.1-.3 0-.3v-.1c.1-.3.3-.5.5-.8 0-.1 0-.1.1-.2h.2s.1-.1 0-.1v-.1c0-.1 0 0-.1 0 0 0 0-.1.1-.1 0 0-.1.1-.1 0V32c0-.1 0 0 0 0s.1 0 .1-.1c0 0-.1.1-.1 0 .1 2.1.1 2.1 0 2.2l.1-.1-.1.1zm17.8 8.1l-.1.1-.1.1V42.7l-.1.1h-.1-.1c0 .1 0 .1-.1.2 0 .2.1.3 0 .5v.3c-.1.1.1.2.2.3.1 0 .1-.1.2-.1.1-.3.3-.6.3-1 0 0 0-.1 0 0v-.2.1c.1-.3 0-.6-.1-.7zm-14.2-4.1c.1 0 .3 0 .4-.1-.1 0-.1-.1-.2-.1s-.2-.2-.3-.2c.1 0 .1.1.1.1s-.1-.1-.2-.1c0-.1-.1-.1-.1-.1-.1 0-.4 0-.4.1h-.1c.1 0 .2-.2.3-.1H36s.1.1.1 0c.1 0 .2.1.3.1 0 .1.1.1.1.1.2.2.1.2.1.3zm7.8-4.1c.1 0 .2-.1.3-.1 0 0 .1-.2 0-.2 0 0 .1 0 .1-.1v-.1h-.1c-.1 0-.1 0-.2.1h-.1-.1.1l-.1.1c.1.2.1.2.1.3 0-.1-.1 0 0 0zm.4-.7c.1 0 .1.1 0 0 .1.1 0 .1 0 .1h.1v.1h-.1.1v.1s0-.1.1-.1 0 0 0 .1l-.1.1h.1v.2c0 .1-.1.1-.2.1h.1c0 .1-.1.1-.1.1h.1c0 .1.1 0 .1 0h-.1c0 .1-.1.1-.1.1h.1s.1-.1.1 0c0 0 .1-.1.1 0H45.3s.1 0 .1-.1h-.1V34c-.1 0-.1-.3-.3-.2h.1c.1 0 .1-.1.1-.1H45s.1 0 .1-.1h-.2s0 .1 0 0c0-.4-.1-.4-.1-.3.1 0 .1 0 0 0 0 0 0 .1 0 0 0 .1 0 .1 0 0zm-6.5-.7h.1c.1-.1 0-.1-.1-.1h-.1c-.1.1-.2.1-.2.2-.1 0-.1 0-.1.1h.1v.1c.1-.3.2-.4.3-.3 0-.1 0-.1 0 0 0 0 0-.1 0 0zm5.2-.1s0 .1 0 0c.1 0 .3.2.4 0 .2 0 .3-.1.4-.2h-.2-.1-.1-.1-.1-.1v.1s-.1-.1-.1 0h-.1-.1c.1.1.2 0 .2.1 0 0 .1 0 0 0 .1 0 .1 0 0 0 .1 0 0 .1 0 0zm-7.9-.8s0 .1 0 0c.2.1.4-.1.7-.1h-.2c-.1 0-.1 0-.2.1H36.2c-.1 0-.2 0-.2.1h.4c-.1 0-.6 0-.5.1h.2c.2 0 .5 0 .7-.1h.6v-.1s-.1 0 0 0h-.1l-.1-.1h.1c0-.1 0-.1.1-.1-.2-.1-.2.2-.3.2 0 0 0-.1.1-.1 0 0-.1-.1-.1 0H37c-.1-.1-.2 0-.2 0s.1 0 .1-.1h-.3.2c0-.1-.1-.1-.2-.1-.1-.1-.4-.1-.4 0-.1 0-.2 0-.2.1-.3.1-.3.1-.4.2zm2-.2c0 .1.1 0 0 0 .1.1.1.1 0 0 0 .1 0 .1 0 0 0 .1 0 .1 0 0-.1 0-.2.1-.2.1s.1.1 0 .1h.1c.1 0 .2 0 .2-.1h-.1.2-.2c.2-.1.1-.1 0-.1.1 0 .1 0 0 0 .1 0 .1 0 0 0zm.8-.3h.2s-.1 0-.1.1h1H38.9h-.1 0-.2c.1-.1-.2-.2-.2-.1zm-1.3 0c-.1 0-.2 0-.3.1h.1-.2.2c0 .1.1 0 .1 0h.2-.3c.1.1.3 0 .5 0 .1 0 .3 0 .3-.1h-.1l.1-.1c-.1 0-.1 0-.2.1h-.1-.1c-.1.1-.1.1-.2 0 0 .1 0 .1 0 0zm.7.1h.2s-.1 0-.1.1h.2c0-.1.1 0 .1-.1 0 0 .1 0 .1-.1s0 0-.1 0H38v.1c-.1 0-.1 0-.1.1 0-.1-.1-.1-.1-.1zm.5-.2h.1c0-.1 0-.1-.1 0l.1-.1H38.1h0c0 .1.1 0 .2.1zm.6-.2c-.1 0-.1 0 0 0-.1.1-.1.1 0 0 0 .1 0 .1 0 0 0 .1 0 .1 0 0h.2c-.1.1-.2.1-.2 0v.1H39.2c.1 0 .2 0 .3-.1h.1c-.1 0-.3 0-.4.1H39.5h-.1-.2c-.1 0-.2 0-.2.1h-.1c.1 0 .3.1.5 0 .1.1.1 0 .2 0s.3 0 .3-.1h-.1.2c.2 0 .3 0 .3-.1h-.1H40.5c.2 0 .5-.1.8-.2.1 0 .3 0 .3-.1h-1.2-1 0c.1 0 .1.1.2 0h.2c0 .1.2 0 .3 0h-.3.1c0-.1-.3-.1-.3 0h-.2s-.1 0-.1-.1H39c0 .4-.1.4-.1.4-.1.1 0 0 0 0-.1 0-.1 0 0 0-.1.1-.1.1 0 0-.1 0 0 0 0 0zm4.5.9h.1v-.1c.1 0 .1.1.2.1h.1v-.1h-.1c-.1 0-.1-.1-.2-.1h-.1.1c0 .1.2 0 .3 0h-.1H43.9v-.1c-.1 0-.1 0-.2-.1H43.9c0-.1-.2 0-.2 0 .1-.1.2-.1.3-.1.1 0 .2 0 .3-.1h-.1c.1 0 .2 0 .4-.1-.2-.1-.4 0-.6 0-.1 0-.2 0-.3.1 0 0 .1 0 .1-.1H43.2h.7-.3-.7c-.2.1-.5 0-.7 0h-.1s.1 0 .2.1c-.1 0-.2-.1-.4-.1h-.7v.1c-.2 0-.3 0-.5.1h.2c-.2.1-.6.1-.7.2.1.1.3.1.4.1-.1 0-.3 0-.4.1h.8s.1 0 .1.1H41h.1v.1h.1s-.1 0-.1.1c-.1 0-.1.1-.1.1 0 .1.1 0 .2 0h.1v.1c-.1 0-.2-.1-.3 0 0 .1.2.1.2.1v.1l-.1.1h-.2c0 .1-.1.1-.1.1h.1s-.1 0-.1.1v.1h.1V33.1s.1.1 0 .1h.6c.1-.1.2-.2.2-.3.2 0 .2-.1.3-.2 0-.1 0 0-.1 0H42.2l.1-.1s-.1 0-.1.1c.3 0 .4-.1.6-.3.3 0 .6-.1.9-.2-.1-.3-.2-.4-.3-.4zm-3.3 2.6c-.1 0-.1 0 0 0 0 0-.1 0 0 0-.1 0-.1 0 0 0-.1 0 0-.1 0 0l-.1-.1h-.1s-.1 0 0 0h0s-.1.1-.1 0l.2-.2h.1c-.1 0-.1.1-.2.1 0 .1-.1.1-.1.2 0 0 0 .1-.1.1 0 0-.1 0 0 0h.1s-.1 0-.1.1h.4s-.1 0-.1.1c.1 0 .2-.1.2-.1v.1h.1c-.2-.1-.2-.2-.2-.3v.1c-.1 0 0-.1 0-.1l-.1.1.1-.1c-.1.1 0 .1 0 0zm.2-2.1c0-.1 0-.1 0 0 0-.1 0-.1 0 0-.1-.1-.1 0-.1-.1h-.1-.1-.1-.1.2c0-.1-.1 0-.1 0h.1c0-.1-.1 0-.1 0h-.2.1c0-.1-.1 0-.2 0h-.1.1c0-.1-.2-.1-.3-.1l-.1.1h.2-.2-.1-.1.1c-.1 0-.3 0-.3.1 0 0-.1 0-.1.1h-.1s-.1 0-.1-.1h.1c.1 0 .2-.1.2-.1-.3 0-.5.1-.6.3h.1-.2.1c.1.1.3.1.4 0 0 0 .1 0 .1.1h.5v.1c-.1 0-.2.1-.3.1v.1h-.3c0 .1-.1 0-.1.1h.4s0 .1 0 0c0 0 0 .1.1.1h-.1.2c0 .1.2.1.3.1 0-.1-.1-.1-.2-.2h.1c0 .1.1.1.1.1V33v-.1h-.1v-.1h-.1.1c-.1 0 0 .1 0 .1h.1c.1 0 0-.1.1-.1h.2l.6-.5zm-3.6 3c.1 0 .2-.2.4-.1h.2c-.2 0-.5.2-.6.1zm.2-.6h.3v.2h-.1v-.1c0 .1-.1.2-.2.3V35c0-.1-.1 0-.1 0 0-.1.1-.1.1-.2l-.1-.1-.1.1c-.2.1-.1.4-.4.5 0-.2.1-.3.2-.5l-.1.1.1-.1c.1-.1.3 0 .5 0 0-.1 0-.1-.1-.1 0 .1 0 0 0 0zm-.4-.3c.1 0 .1 0 0 0H36.8c0 .1 0 .1.1.1 0 .1 0 .1 0 0h-.1c-.1 0-.2.1-.3 0h-.1l.1-.1c-.1 0-.2.1-.3.1H36c.2 0 .4 0 .5-.1zm-.7-.5c.1 0 .1 0 0 0 .1-.1.1 0 0 0 0-.1.1-.1.1-.1h.1v.2h-.1v-.1h-.1zm0-1.2s-.2 0 0 0c-.3.1-.6.3-.8.2.1 0 .2 0 .3-.1v-.1s.1 0 .1.1c.2 0 .2-.1.4-.1zm-.4-.5s-.1 0-.2.1c.1 0 .4-.1.2-.1.1.1 0 .1 0 .1-.1 0-.2 0-.2.1h-.1.1c-.1-.1-.2.1-.3 0 0 0 .2 0 .2-.1h.1c-.1-.1-.2 0-.3 0 .1 0 .4 0 .5-.1zm-2.6 2.5zm15.9 7c0-.2-.2-.2-.1-.4v-.2-.1c0 .1.1.2.1.4v.3c0 .1 0 0 0 0zm.5.8l-.1-.1v-.5c.1.1.1.3.1.3v.3zm-.3-1.8c0-.1.1 0 0 0 .1 0 .1 0 .1-.1v.1h-.1c-.1.1 0 .1-.1.1h.1c0 .1-.1 0-.2 0v-.1c.2.1.1 0 .2 0zm-.7-7.8c.1 0 .2 0 .3.1v.1h-.1c-.1 0 0 0 0 0l-.2-.2zm.9 2.4c-.1-.1-.1 0-.1-.1-.1-.1-.3 0-.4.1-.2 0-.3 0-.4-.2V35v-.2h.1v-.1s.1 0 .1-.1h.4s-.1 0-.1.1h.1v.1c.1.1.1 0 .2 0h-.1c0-.1-.1 0-.1-.1.1-.1.2-.1.4-.1l-.1.1s.1 0 .1.1c0 0-.1 0-.1.1H49c.2.1.3.2.5.3.3.3-.3.2-.4.1zM46.5 31c0 .1.1.1.2.1h.1-.2c0 .1.1 0 .1 0h-.1.1s.1.1.1 0c0 0 0-.1.1-.1h0s.1 0 .1.1h.1c.1 0 .1 0 .2-.1h-.1-.1c0-.1-.1 0-.1 0-.1 0-.2 0-.2-.1h-.2l.1.1c-.1 0-.1-.1-.2-.1.1 0 0 0 0 .1h-.1.1zm-8.9 7.2c0-.1-.1 0-.1-.1 0 0 .1 0 0 0H37.2c0 .1-.2-.1-.2 0h.1v.1h-.2.1s.3 0 .2.1l.1-.1h.2s0 .1.1 0c-.1.1 0 .1 0 0zm8.6-2.5c0-.1.1 0 0 0 .1-.1.1-.1 0 0 .1-.1.1-.1 0 0 .1-.1.1-.2.1-.3 0 0-.1.1-.1 0V35.7c0-.1 0-.1 0 0zm-9.7-4.4h.1c.1 0 .1-.1.2-.1h-.1H37c-.2-.1-.5.1-.7.1h.2z" fill-rule="evenodd" clip-rule="evenodd" fill="#0172a9"/><radialGradient id="SVGID_3_" cx="145.029" cy="433.941" r="36.871" gradientTransform="translate(-10.585 -128.88) scale(.3784)" gradientUnits="userSpaceOnUse"><stop offset="0" stop-color="#fff"/><stop offset=".375" stop-color="#fff"/><stop offset=".796" stop-color="#b1c1c3"/><stop offset="1" stop-color="#fff"/></radialGradient><path d="M36.5 31.2s-.1 0 0 0h.1c.1 0 .1-.1.2-.1h-.1H37c-.2-.1-.5.1-.7.1h.2zm10.8-.4l.1.1H47h-.1-.1.4c0-.1 0-.1.1-.1-.1 0 0 0 0 0zm1.5 1.2l.1.1c-.2.2-.6 0-.7 0 0 .1.1 0 .1.1.1 0 .1 0 .1.1l.1.1c.1 0 .2.1.3.1-.1 0-.1 0-.1-.1 0 0 .1 0 .1.1h.2c0-.1-.1-.1-.1-.1l.1-.1c.6.7 1.2 1.5 1.6 2.3h-.1-.1c-.1 0-.2.1-.2.1h-.1c0 .1 0 .1-.1.1l.1.1c0 .2.2.2.3.4h0v.1s0 .1 0 0c0 .2 0 .2.2.2.1 0 .1.1.2.1s.1-.1.2 0c0-.1-.1-.2 0-.3h-.1v-.1h-.1c0-.1-.1-.2-.1-.3h-.1s0-.1-.1 0c0-.1-.1-.1-.1-.1h-.1.1c0-.1.1 0 .2 0 .4.8.7 1.6.8 2.5 0-.1 0-.2-.2-.2h.1s-.1 0-.1.1h-.1-.1c-.1-.1-.3-.1-.3-.3 0-.1-.1-.1-.1-.1h-.1-.1-.1-.1c0 .1.1.1.1.2 0 0 .1 0 .1.1v.1c0 .1.1.1.1.2v-.2.2h.2c.1 0 .2-.2.2-.3v.1c0 .1.1.2.2.2 0 .1 0 .3.1.4v.2c-.1 0-.1.2-.2.1 0 .2-.3.1-.4.2v.1c-.1.1-.3.1-.4.2-.1 0-.3.1-.4.2h-.2c-.1-.1 0-.3-.1-.3 0-.1 0-.2-.1-.2-.1-.1-.1-.3-.3-.4-.2-.1 0-.4-.3-.5-.1-.2-.2-.3-.3-.5h-.1v-.2c0 .1 0 .2-.1.2s-.1-.2-.2-.3c.2.2.2.5.4.7 0 .1.1.2.2.2 0 .1.1.1 0 .1v.3c.2.1.2.3.3.5v-.1.1c.1.1.3.2.3.4h-.1.1c0 .1.1.1.1.2.1 0 .2 0 .3-.1.2 0 .3-.1.4-.1v.2c0 .1-.1.2-.1.3-.1.6-.7.8-.9 1.3l-.1.1c0 .2-.3.4-.1.5-.1.1 0 .3 0 .4h.1v.5c0 .3-.4.3-.5.6-.1 0-.1.1-.2.1v.1c.1.1.1.1.1.2v.2c0 .2-.3.1-.3.3 0 .1 0 .3-.1.4-.2.2-.3.5-.6.6h-.1-.4c-.1 0-.2 0-.2.1 0 0-.1 0-.1-.1h-.1c0-.1 0-.2-.1-.2 0-.3-.2-.5-.3-.8 0-.1-.1-.3-.1-.5-.1-.3-.3-.5-.3-.9.1-.1.1-.3.1-.4.2-.1 0-.3 0-.5 0-.1-.1-.2-.1-.3 0-.2-.3-.4-.3-.6v-.1-.1-.1-.1c.1-.1.1-.3 0-.4v-.1h-.1c-.1.1-.2 0-.2-.1 0-.2-.4-.2-.5-.1-.1 0-.2.1-.3.1-.2-.1-.5-.1-.6.1-.3-.1-.3-.3-.6-.4 0 0 0-.1-.1-.1 0-.1-.2-.1-.2-.3v-.1h-.1s0-.1-.1-.1v-.1s0-.1-.1-.2c.2-.1.2-.5.1-.7v-.1-.1c0-.2.1-.3.2-.4.1-.1.1-.2.2-.3.1 0 .1-.1.2-.2.2 0 .4-.2.3-.3 0-.4.4-.3.5-.7 0 .1.2.1.3.1.1.1.2-.1.3 0 .1-.1.4-.2.6-.1 0 0 .1 0 .1-.1h.2c.1 0 .2-.1.3 0v.1h.1s0 .1-.1.1c0 .1 0 .1.1.1 0 .1-.1.1-.1.2v.2c.1 0 .1.1.2 0 .1 0 .1.1.2.1 0 .2.3.1.4.3.1 0 .1 0 .1-.1-.1-.2.2-.3.3-.2 0 .1.1.1.2.1v.1c.2 0 .3.1.5.1.1 0 .1-.1.2-.1h.1c.2.1.3-.3.3-.4v-.2-.1h-.1-.1s-.1 0-.1.1c-.1.1-.2-.1-.4-.1v.1h-.1-.1-.1-.1-.1 0s-.1 0 0 0H47h0v-.1h0-.2-.1s-.1 0 0-.1c-.1.1.1.1 0 .2h.1v.1h-.1v.1h-.1s0 .1.1.1h-.1s0-.1-.1-.1c0 0-.1-.1 0-.1l-.1-.1.1-.1h-.1v-.1l-.1-.1h-.1s-.1 0-.1-.1v-.2c-.1 0-.1-.1-.2-.1h-.1-.1l-.1-.1v-.1-.1h-.1-.1c0 .1.1.1.1.2s.1.2.3.2c.1.1.2.1.3.2l-.1-.1h-.1s0 .1-.1.1h.1v.1h-.1s-.1 0 0 .1c0 0-.1.1 0 .1-.1 0-.2-.1-.3-.1v-.1c.1.1.2 0 .2 0v-.1c0-.1 0 0 0 0s0-.1-.1-.2h-.1v-.1-.1h-.1c-.1 0-.1-.1-.2-.1 0 0 0-.1-.1-.1v-.1s-.1 0-.1-.1c-.1.1-.3.2-.5.1-.1 0-.1.1-.1.2v.1c-.1.1-.2.1-.3.1-.1 0-.2.2-.1.2 0 0-.1.1-.1.2-.1 0-.1 0-.2.1-.1 0-.3 0-.4.1-.1 0-.1-.2-.2-.1H43v-.2c.1-.1.1-.3.1-.5.1-.2.5 0 .7-.1.1.1.2-.1.2-.2v-.1c.1-.1 0-.1-.1-.1v-.1c0-.1 0 0 0 0h-.1s-.1-.1-.1 0c0-.1.1 0 .2-.1h.1v-.1h.2c.1 0 .2 0 .1-.1.1 0 .2 0 .2-.1.1 0 .1-.1.1-.2 0 0 .1 0 .1-.1h.2v-.1h.1v-.1-.1-.1c0-.1.2-.1.2-.1v.1h.1s0 .1-.1.1h.1v.1h-.1.2s0 .1-.1 0h.1s.1-.1.2-.1c.1.1.3-.1.5-.1 0 .1.2.1.1 0 .1 0 .1-.1.1-.2 0 0 0-.1.1-.1 0 0 .1.1.2.1v-.1h-.1s0-.1-.1-.1c.1-.1.2-.1.5-.1h.2s-.1 0-.2-.1c-.2 0-.3 0-.5.1v-.1h-.1c0-.1 0-.2-.1-.2v-.1h.1l.2-.2c0-.1-.2-.1-.2-.1-.1 0-.1 0-.1.1-.1.1-.2.1-.2.2 0 0 0 .1 0 0v.1h.1s.1 0 .1.1h-.1s-.1 0-.1.1h-.1v.1c0 .1 0 .1-.1.2h-.1-.1v.1h-.1.2c-.1-.1-.2-.2-.2-.3h-.1c0 .1-.2.2-.3.1 0 0-.1 0-.1-.1h-.1v-.1-.1h.2c0-.1.1 0 .1 0 .1 0 .1-.1.2-.1h.1s0-.1.1-.1h.1l.1-.1h-.1.2s.1 0 .1-.1h-.1.1s.1 0 .2-.1h.2s.1 0 .1-.1h.1l-.1.1.1-.1v.1h.2c.1 0 .1 0 .2.1h-.1.1s.1 0 0 0c1.5-.3 1.6-.1 1.8-.1zm1.9 2.6s0 .1.1.1c-.1 0-.1 0-.1-.1zm-17.9-.4l.1-.1h.1v.1h.1v.1c-.1.1-.2 0-.3-.1.1.1 0 .1 0 0 0 .1 0 .1 0 0zm.1-.2c0-.1.1-.1.1-.2.5-.7 1-1.4 1.6-2 .1 0 .2 0 .3-.1.1 0 .1-.1.2 0 .1 0 .1 0 0 .1.1 0 .1 0 .1-.1h-.1c.1 0 .3-.1.3 0 .1 0 .3 0 .4.1-.1 0-.1 0-.2.1h.6v-.1c.1 0 .2-.1.3-.1h.1c.1.1.3 0 .4 0h0c0-.1.1 0 .1-.1s.1 0 .2 0c-.1 0-.1.1-.2 0h.1l-.1.1c0-.1.2-.1.3-.2h-.1s.1 0 .1-.1h-.1s0-.1.1-.1l.1-.1h.2c0-.1.1-.2.2-.2h.4c-.1 0-.2.1-.4.1 0 .1-.1.1-.1.1h.1v.1s0 .1 0 0h-.1-.1 0v.1c.1 0 .1-.1.2-.1V31.6h.2c.1 0 .1-.1.2-.1v-.1H38.4v.1c-.1.1-.2.1-.3.1v.1H38h-.1-.1-.1c-.1 0-.1.1-.2.1-.1.1-.2.2-.3.1 0 .1-.1.1-.2 0h.1c0 .1-.1.1-.2.1 0 0-.1 0-.1.1 0 0-.1 0-.1.1-.1 0-.2.1-.2.2h-.1c0 .1-.1.1-.1.2h.1c0 .1 0 .2-.1.2.1 0 .3 0 .4.1.1 0 .2 0 .2.1h.3c-.1.1-.1.2-.1.3v.1l.1.1h.1s0-.1.1-.1c0-.1.1-.1.1-.1 0-.1.1-.2.1-.2V33c.2 0 .7-.3.4-.5 0-.1.1-.1.2-.2v-.1l.1-.1c.1-.2.3 0 .5-.1h.1l.1.1h.2c0 .1-.1.1-.1.1v.1h.1s0 .1 0 0c.1 0 .1-.1.2-.1s.1-.1.1-.1c.1 0 .1 0 .1-.1 0 0 .1 0 0 0h.1v.1h.1v.1h.4v.1c-.1.1-.3.1-.4.2-.1.1-.2.1-.3.1H39c-.1.1-.3.2-.5.2 0 .1-.1.1-.2.2.2-.1.5-.3.8-.3v.1c-.1 0-.1.1-.2 0h.2l-.1.1v.1H39.3c0-.1.1-.1.2-.2v.1h.1s-.1.1-.2 0c-.1 0-.2.1-.3.1H39c0 .1-.1.1-.2.1h-.1V33c.1 0 .2-.1.2-.1h0s.1 0 .1-.1c-.1 0-.2.1-.3.1 0 0-.1.1-.1 0l-.1.1h-.1c-.1 0-.1.1-.2.2v.1h-.1-.1c-.1 0-.2 0-.3.1h.2c-.1 0-.2.1-.3.1 0 .1-.1.2-.2.2v-.1.1s0 .1-.1.1-.1.1-.1.1 0-.1.1-.1v-.1l.1-.1c-.1 0-.1.1-.1.2v.2h-.1l-.1.1s-.2 0-.2.1c-.1 0-.2.1-.2.1l-.1.1c-.3.1 0 .7-.2.9s-.1 0-.1 0v-.1-.1-.1-.1c.1-.2 0-.4-.2-.2v-.1H36h-.1-.1v-.1c-.1 0-.2.1-.2 0h.1s.1 0 .1.1v-.1.1h-.4s-.1.1-.2.1c0 0-.1 0-.1.1v.2c0 .1 0 .2-.1.3 0 .1-.1.3 0 .4v-.1c0 .1.1.2.1.3 0 0 .1 0 .1.1.1 0 .2-.1.3-.1h.1c.1 0 .1-.1.1-.1 0-.2.3-.2.4-.2.1.1-.1.2-.1.2s0 .1-.1.1v-.1c0 .1 0 .2-.1.3H36.1c.1 0 .1.1.2.1 0 .1 0 .3-.1.4v.1c0 .1.1.2.2.2s.2-.1.2-.1h.1c.1 0 .2.1.2.2v-.1c.1 0 .1-.1.2-.1 0-.1 0-.1.1-.2v-.1c.1 0 .2 0 .2-.1h.2l-.1.1v.1s.1-.1.2-.1v-.1.1c.1 0 .2.1.2.1h.2c.1.1.2 0 .3 0h-.1H38.5v.1h.1s.1 0 .1.1v.2c.1 0 .3.1.2.2.1 0 .1.1.2.1h.2c.2 0 .3.1.4.2v.1c.1 0 0 .2.1.3h.1v.1h-.1v.1h0V38c-.1 0-.1.1-.1.1V38h.2c0 .1-.1.2-.2.2h.1v.1l.1-.1c0-.1.1-.1.1-.1s.1.1.1 0l.1.1v.1s0-.1.1-.1c0 0 .1-.1.1 0 .1 0 .1.1.2 0 .1 0 .3 0 .4.1 0 .1.1.1.1.2h.1c.2-.1.2.2.2.3 0 .2-.1.3-.2.4-.1.1-.1.2-.2.3v.7c-.1.1 0 .3-.2.4v.1s-.1 0-.1.1h-.2s-.1 0 0 0h-.1-.1c-.1 0 0 0 0 0-.1 0-.2.1-.2.2v.5c-.2.1-.1.4-.3.4 0 .1-.1.2-.1.3 0 0-.1 0-.1.1h-.2s-.1 0-.1-.1h-.1s-.1 0-.1-.1c0 .1.1.1.2.2 0 0 0 .1.1.1.1.1 0 .1 0 .2-.1.1-.3.1-.5.1l.1.1v.1c0 .1-.2 0-.3 0 0 0 0 .2.1.2v.1h-.1-.1.1s-.1 0-.1.1.1.1 0 .1h-.1c-.1.2.2.2.2.3 0 0-.1.1-.1.2.1.1 0 .1-.1.1 0 .1.1.2.2.2h-.1s.1.1.1 0c0 0 .1 0 .1.1.1.1.2.2.4.2H39h-.1s.1 0 .1.1h-.1s-.1 0-.1-.1h-.1-.1.1c-.1 0-.1-.1-.2 0h-.1s-.2 0-.2-.1c0 0 .1 0 .2.1 0 0-.1 0-.1-.1h0s-.1 0-.1-.1h-.1-.1v0h-.1v-.1h0v-.1s.1 0 .1.1c0 0 0-.1 0 0h-.1v-.1h-.1-.1l.1-.1h.1v-.1.1s0 .1.1.1V44h.1s0-.1-.1-.1v-.2s0 .1 0 0v.1h-.1v-.2c-.1-.1-.1-.1-.1-.2.1-.1-.1-.2-.1-.4v-.1c0-.3 0-.5-.1-.8.1-.1-.1-.2 0-.3v-.5-.1c0-.2 0-.6-.2-.7-.2-.2-.5-.2-.6-.5 0-.1-.1-.2-.2-.3-.1-.2-.2-.6-.4-.7v-.1c-.1-.1.1-.2.1-.3 0-.1-.1-.1-.1-.1v-.2s.1 0 0-.1c0 0 .1-.1 0-.1 0 0 .1 0 .1-.1h.1v-.1h.1v-.1s0-.1.1-.1v-.2-.1c0-.1-.1-.1-.1-.2 0-.2-.2 0-.2 0v.1h-.1-.1-.1-.1s0-.1-.1-.1h-.1c.1-.1 0-.1-.1-.1 0 0 0-.1-.1-.1 0 0-.1 0-.1-.1v-.1c-.1-.1-.1-.2-.2-.2H35c-.2-.1-.3-.2-.4-.3 0 0-.1 0 0 0-.1.1-.3.1-.5 0-.1 0-.3-.1-.3-.2h-.2c0-.1-.2-.1-.2-.3v-.1c-.1-.1-.1-.3-.2-.4v-.1s-.1 0-.1-.1c-.1 0-.1-.1 0-.1 0-.1-.1-.1 0-.1H33c0-.1-.1-.1-.1-.1v-.1-.2c0-.1-.1 0-.1-.1-.2.2.1.4.1.6 0 0 .1.1 0 .1v.1s-.1.1 0 .1c0 .1 0 .1-.1.1 0-.1-.1-.1-.2-.2.1-.1 0-.2 0-.3h-.1s0-.1-.1-.1v-.1h.1v-.1c0-.1-.2-.1-.1-.2-.1-.1 0-.4-.1-.5 0-.1-.1-.1-.2-.1.1-.1 0-.1 0-.2.1-.1.1-.3 0-.3v-.1c.1-.3.3-.5.5-.8 0-.1 0-.1.1-.2h.2s.1-.1 0-.1V32c0-.1 0 0-.1 0 0 0 0-.1.1-.1 0 0-.1.1-.1 0v-.1c0-.1 0 0 0 0s.1 0 .1-.1c.2 2.2.1 2.3 0 2.3.1 0 .1-.1 0 0v-.1.1zm17.8 8.1c.1 0 .1 0 0 0 0 0 0 .1 0 0l-.1.1-.1.1V42.6l-.1.1h-.1-.1c0 .1 0 .1-.1.2 0 .2.1.3 0 .5v.3c-.1.1.1.2.2.3.1 0 .1-.1.2-.1.1-.3.3-.6.3-1 0 0 0-.1 0 0v-.2.1c.1-.3 0-.6-.1-.7zM36.5 38c.1 0 .3 0 .4-.1-.1 0-.1-.1-.2-.1s-.2-.2-.3-.2c.1 0 .1.1.1.1s-.1-.1-.2-.1c0-.1-.1-.1-.1-.1-.1 0-.4 0-.4.1h-.1c.1 0 .2-.2.3-.1h-.1s.1.1.1 0c.1 0 .2.1.3.1 0 .1.1.1.1.1.2.3.1.3.1.3zm7.9-4c.1 0 .2-.1.3-.1 0 0 .1-.2 0-.2 0 0 .1 0 .1-.1v-.1h-.1c-.1 0-.1 0-.2.1h-.1-.1.1l-.1.1c.1.1.1.2.1.3 0-.1-.1-.1 0 0-.1-.1 0-.1 0 0 0-.1-.1-.1 0 0 0-.1 0-.1 0 0 0-.1 0-.1 0 0 0-.1 0 0 0 0zm.4-.8s0 .1 0 0c.1.1 0 .1 0 .1h.1v.1h-.1.1v.1s0-.1.1-.1v.1l-.1.1h.1v.2c0 .1-.1.1-.2.1h.1c0 .1-.1.1-.1.1h.1c0 .1.1 0 .1 0h-.1c0 .1-.1.1-.1.1h.1s.1-.1.1 0c0 0 .1-.1.1 0H45.3s.1 0 .1-.1h-.1v-.1c-.1 0-.1-.3-.3-.2h.1c.1 0 .1-.1.1-.1H45s.1 0 .1-.1h-.2s0 .1 0 0l-.1-.3s0 .1 0 0c0 .1 0 .1 0 0zm-6.6-.7h.1c.1-.1 0-.1-.1-.1h-.1c-.1.1-.2.1-.2.2-.1 0-.1 0-.1.1h.1v.1c.1-.3.2-.4.3-.3 0-.1 0-.1 0 0 0 0 .1-.1 0 0zm5.3 0c.1 0 .3.2.4 0 .2 0 .3-.1.4-.2h-.2-.1-.1-.1-.1-.1v.1s-.1-.1-.1 0h-.1-.1c.1 0 .1 0 .2.1 0-.1 0-.1 0 0 0-.1 0-.1 0 0 0-.1 0 0 0 0zm-7.9-.9s0 .1 0 0c.2.1.4-.1.7-.1h-.2c-.1 0-.1 0-.2.1H36.2c-.1 0-.2 0-.2.1h.4c-.1 0-.6 0-.5.1h.2c.2 0 .5 0 .7-.1h.6v-.1s-.1 0 0 0h-.1l-.1-.1h.1c0-.1 0-.1.1-.1-.2-.1-.2.2-.3.2 0 0 0-.1.1-.1 0 0-.1-.1-.1 0H37c-.1-.1-.2 0-.2 0s.1 0 .1-.1h-.3.2c0-.1-.1-.1-.2-.1-.1-.1-.4-.1-.4 0-.1 0-.2 0-.2.1-.3.1-.4.1-.4.2-.1 0 0 0 0 0zm2-.2c0 .1 0 .1 0 0 0 .1 0 .1 0 0 0 .1 0 .1 0 0-.1.1-.1.1 0 0-.1 0-.2.1-.2.1s.1.1 0 .1h.1c.1 0 .2 0 .2-.1h-.1.2-.2c.1-.1.1-.1 0-.1.1 0 0 0 0 0zm.8-.3h.2s-.1 0-.1.1h1H38.9h-.1 0-.2c0-.1-.2-.1-.2-.1zm-1.4 0c-.1 0-.2 0-.3.1h.1-.2.2c0 .1.1 0 .1 0h.2-.3c.1.1.3 0 .5 0 .1 0 .3 0 .3-.1h-.1l.1-.1c-.1 0-.1 0-.2.1h-.1-.1c-.1.1-.1.1-.2 0zm.8.1h.2s-.1 0-.1.1h.2c0-.1.1 0 .1-.1 0 0 .1 0 .1-.1h-.1-.2v.1c-.1 0-.1 0-.1.1 0-.1-.1-.1-.1-.1zm.4-.2h.1c.1-.1 0-.1-.1 0l.1-.1H38h0c.1.1.2 0 .2.1zm.6-.2c0 .1 0 .1 0 0 0 .1.1.1 0 0 .1.1.1.1 0 0h.2c-.1.1-.1.1-.2 0v.1H39.1c.1 0 .2 0 .3-.1h.1c-.1 0-.3 0-.4.1H39.4h-.1-.2c-.1 0-.2 0-.2.1h-.1c.1 0 .3.1.5 0 .1.1.1 0 .2 0s.3 0 .3-.1h-.1.2c.2 0 .3 0 .3-.1h-.1H40.4c.2 0 .5-.1.8-.2.1 0 .3 0 .3-.1h-1.2-1 0c.1 0 .1.1.2 0h.2c0 .1.2 0 .3 0h-.3.1c0-.1-.3-.1-.3 0h-.2s-.1 0-.1-.1H38.9c0 .4 0 .4-.1.4 0 .1 0 0 0 0-.1.1-.1.1 0 0zm4.5 1h.1v-.1c.1 0 .1.1.2.1h.1v-.1h-.1c-.1 0-.1-.1-.2-.1h-.1.1c0 .1.2 0 .3 0h-.1H43.8v-.1c-.1 0-.1 0-.2-.1H43.8c0-.1-.2 0-.2 0 .1-.1.2-.1.3-.1.1 0 .2 0 .3-.1h-.1c.1 0 .2 0 .4-.1-.2-.1-.4 0-.6 0-.1 0-.2 0-.3.1 0 0 .1 0 .1-.1H43.1h.7-.3-.7c-.2.1-.5 0-.7 0H42s.1 0 .2.1c-.1 0-.2-.1-.4-.1h-.7v.1c-.2 0-.3 0-.5.1h.2c-.2.1-.6.1-.7.2.1.1.3.1.4.1-.1 0-.3 0-.4.1h.8s.1 0 .1.1h-.1.1v.1h.1s-.1 0-.1.1c-.1 0-.1.1-.1.1 0 .1.1 0 .2 0h.1v.1c-.1 0-.2-.1-.3 0 0 .1.2.1.2.1v.1l-.1.1h-.2c0 .1-.1.1-.1.1h.1v.1h.1V33s.1.1 0 .1h.6c.1-.1.2-.2.2-.3.2 0 .2-.1.3-.2 0-.1 0 0-.1 0H42.2l.1-.1s-.1 0-.1.1c.3 0 .4-.1.6-.3.3 0 .6-.1.9-.2-.1-.3-.3-.4-.4-.3zM40 34.3l-.1-.1h-.1s-.1 0 0 0h0s-.1.1-.1 0l.2-.2h.1c-.1 0-.1.1-.2.1 0 .1-.1.1-.1.2 0 0 0 .1-.1.1 0 0-.1 0 0 0h.1s-.1 0-.1.1h.4s-.1 0-.1.1c.1 0 .2-.1.2-.1v.1h.1c-.2-.1-.1-.2-.2-.3v.1s.1 0 0-.1c0 0 0 .1-.1.1l.1-.1c0 .1 0 .1 0 0zm.3-2.1c0-.1-.1-.1 0 0-.1-.1-.1-.1 0 0-.1-.1-.1 0-.1-.1h-.1-.1-.1-.1.2c0-.1-.1 0-.1 0h.1c0-.1-.1 0-.1 0h-.2.1c0-.1-.1 0-.2 0h-.1.1c0-.1-.2-.1-.3-.1l-.1.1h.2-.2-.1-.1.1c-.1 0-.3 0-.3.1 0 0-.1 0-.1.1h-.1s-.1 0-.1-.1h.1c.1 0 .2-.1.2-.1-.3 0-.5.1-.6.3h.1-.2.1c.1.1.3.1.4 0 0 0 .1 0 .1.1h.5v.1c-.1 0-.2.1-.3.1v.1h-.3c0 .1-.1 0-.1.1h.4s0 .1 0 0c0 0 0 .1.1.1h-.1.2c0 .1.2.1.3.1 0-.1-.1-.1-.2-.2h.1c0 .1.1.1.1.1v-.1-.1h-.1v-.1h-.1.1c-.1 0 0 .1 0 .1h.1c.1 0 0-.1.1-.1h.2c.5-.5.6-.5.6-.5zm-3.7 3s.1 0 0 0c.1 0 .2-.2.4-.1h.2c-.2 0-.4.2-.6.1zm.2-.6h.3v.2H37v-.1c0 .1-.1.2-.2.3v-.1c0-.1-.1 0-.1 0 0-.1.1-.1.1-.2l-.1-.1-.1.1c-.2.1-.1.4-.4.5 0-.2.1-.3.2-.5l-.1.1.1-.1c.1-.1.3 0 .5 0 .1 0 .1-.1-.1-.1.1.1.1 0 0 0zm-.4-.3c.1.1.1 0 0 0 .1 0 .1 0 0 0H36.7c0 .1 0 .1.1.1 0 .1 0 .1 0 0h-.1c-.1 0-.2.1-.3 0h-.1l.1-.1c-.1 0-.2.1-.3.1h-.2c.2.1.4 0 .5-.1zm-.6-.5c.1-.1 0 0 0 0 0-.1.1-.1.1-.1h.1v.2h-.1v-.1h-.1zm-.1-1.2c0 .1-.1 0 0 0-.3.1-.6.3-.8.2.1 0 .2 0 .3-.1v-.1s.1 0 .1.1c.2 0 .3-.1.4-.1zm-.3-.5s-.1 0-.2.1c.1 0 .3 0 .2-.1.1.1 0 .1 0 .1-.1 0-.2 0-.2.1h-.1.1c-.1-.1-.2.1-.3 0 0 0 .2 0 .2-.1h.1c-.1-.1-.2 0-.3 0 0 0 .3 0 .5-.1zm-2.6 2.5zm15.8 7c.1 0 .1 0 0 0 0-.2-.2-.2-.1-.4V41v-.1c0 .1.1.2.1.4.1.1.1.3 0 .3.1.1.1 0 0 0zm.6.8s-.1 0 0 0c-.1 0-.1 0 0 0l-.1-.1v-.5c.1.1.1.3.1.3-.1.1-.1.2 0 .3zm-.4-1.8s.1 0 0 0c.1 0 .1 0 .1-.1v.1h-.1c-.1.1 0 .1-.1.1h.1c0 .1-.1 0-.2 0v-.1c.2.1.2 0 .2 0zm-.7-7.8c.1 0 .2 0 .3.1v.1h-.1c-.1 0 0 0 0 0-.1-.1-.1-.2-.2-.2zm1 2.4c-.1 0-.1 0 0 0-.1-.1-.1 0-.1-.1-.1-.1-.3 0-.4.1-.2 0-.3 0-.4-.2v-.1-.2h.1v-.1s.1 0 .1-.1h.4s-.1 0-.1.1h.1v.1c.1.1.1 0 .2 0h-.1c0-.1-.1 0-.1-.1.1-.1.2-.1.4-.1l-.1.1s.1 0 .1.1c0 0-.1 0-.1.1H49c.2.1.3.2.5.3.2.3-.3.2-.4.1zm-2.6-4.3s-.1 0 0 0c0 .1.1.1.2.1h.1-.2c0 .1.1 0 .1 0h-.1.1s.1.1.1 0c0 0 0-.1.1-.1h0s.1 0 .1.1h.1c.1 0 .1 0 .2-.1h-.1-.1c0-.1-.1 0-.1 0-.1 0-.2 0-.2-.1h-.2l.1.1c-.1 0-.1-.1-.2-.1.1.1 0 .1 0 .1h-.1.1zm-8.9 7.3c0-.1-.1 0-.1-.1 0 0 .1 0 0 0H37.2c0 .1-.2-.1-.2 0h.1v.1h-.2.1s.3 0 .2.1l.1-.1H37.6c-.1 0 0 0 0 0zm8.6-2.6c0-.1 0 0 0 0 0-.1 0-.1 0 0 0-.1.1-.1 0 0 .1-.1.1-.2.1-.3 0 0-.1.1-.1 0v.1c-.1.1-.1.1 0 .2 0-.1 0 0 0 0z" fill-rule="evenodd" clip-rule="evenodd" fill="url(#SVGID_3_)"/></g><path class="st2" d="M42 36.4c.1 0 .2.1.2.2s-.1.2-.2.2-.2-.1-.2-.2 0-.2.2-.2z"/><g><path class="st6" d="M2.8 39.9l.3-4.2.9.1-.3 3.2 1.2.1.1-1.8h.9l-.2 1.9 1.3.1.3-3.3 1 .1-.3 4.2-5.2-.4zM4.3 34l.2-.6 2.8-1-2-2.2.2-.6 4.1 1-.2.8-2.8-.7 2 2v.1l-2.6.9 2.8.7-.3.6-4.2-1zM6.1 27.9l1.2-2.8c.2-.5.5-.6 1.1-.4l.9.4c.6.2.7.6.5 1l-.9 2 1.5.7-.4.7-3.9-1.6zm1-.5l1 .5.7-1.7c.1-.2.1-.4-.2-.5l-.4-.2c-.3-.1-.4 0-.5.2l-.6 1.7zM8.6 22.4l1.4-2.2c.3-.6.6-.6 1.3-.2l1.9 1.2c.7.4.7.7.4 1.3l-1.4 2.2c-.3.6-.6.6-1.3.2L9 23.7c-.6-.4-.7-.7-.4-1.3zM13 22l-2.3-1.4-1.4 2.3 2.3 1.4L13 22zM11.2 18.4l.6-.6 2.8 1.3-1.6-2.7.4-.4 2.9 1.2-1.7-2.6.4-.6 2.3 3.8-.4.4L14 17l1.6 2.7-.4.4-4-1.7zM15.9 13.2l2.7-2.3.5.6-2.1 1.8.6.7 1.2-1 .5.6-1.2 1 .7.8 2.1-1.8.5.6-2.8 2.4-2.7-3.4zM19.8 10l2.5-1.6c.5-.3.8-.2 1.1.3l.6.8c.3.5.2.8-.2 1.1l-.4.2 2.2.5-1 .6-2.1-.6-.6.4.9 1.4-.7.4-2.3-3.5zm1.1.2l.6 1 1.6-1c.2-.1.3-.2.1-.5l-.3-.4c-.1-.2-.3-.2-.5-.1l-1.5 1zM24.4 7.2l3.3-1.5.3.7-2.5 1.2.4.8 1.5-.7.3.7-1.5.7.4.9 2.6-1.2.3.7-3.3 1.5-1.8-3.8zM29.1 5.2l2.2-.6c1.3-.4 2.2.2 2.5 1.4.4 1.4-.1 2.3-1.5 2.7l-2 .6-1.2-4.1zM31.9 8c1-.3 1.4-.7 1.1-1.8-.2-.8-.7-1.1-1.5-.9l-1.4.4.8 2.6 1-.3zM37.8 3.2l3-.2c.5 0 .8.2.8.8v.5c0 .4-.2.7-.5.8.4.1.6.3.6.8v.5c0 .6-.3.9-1 .9l-2.7.2-.2-4.3zm.8.6l.1 1 1.8-.1c.2 0 .4-.1.3-.3V4c0-.2-.1-.3-.4-.3l-1.8.1zm.1 1.8l.1 1.1 1.8-.1c.3 0 .4-.1.4-.4v-.3c0-.3-.1-.4-.4-.3h-1.9zM43.9 5.4L42.2 3h1.1l1.1 1.7 1.3-1.5 1 .1-2 2.2-.1 1.9h-.8l.1-2zM51.2 3.2l.9.2-1.3 5-.9-.2 1.3-5zM53.8 4.8l.5.2L56 8.7l1-2.6.7.3-1.5 4-.5-.2L54 6.4l-1 2.7-.7-.3 1.5-4zM59.3 7.1l.5.3 1 3.9 1.4-2.4.6.4-2.1 3.7-.5-.3-1-3.9-1.4 2.5-.6-.4 2.1-3.8zM65 10.7l2 1.6c.5.4.6.7 0 1.3l-1.4 1.7c-.5.6-.8.6-1.3.2l-2-1.6c-.5-.4-.6-.7 0-1.3l1.4-1.7c.5-.6.8-.6 1.3-.2zm-.1 4.4l1.7-2.1-2.1-1.7-1.7 2.1 2.1 1.7zM68.6 13.7l.6.7-1.3 3.1 3.2-1.1.6.6-4.4 1.5-.4-.4 1.7-4.4zM73.1 19l.5.6-2.3 4.1-.7-.7.5-.9-1.3-1.8-1 .2-.5-.7 4.8-.8zm-1.5 2.4l1-1.7-1.9.4.9 1.3zM72.1 25.6l-.4-.7 3.1-1.6-.8-1.4.7-.3 1.9 3.6-.6.2-.8-1.4-3.1 1.6zM77.1 26.1l.3.8-3.9 1.6-.3-.8 3.9-1.6zM78.3 29.2l.7 2.5c.2.6.1.9-.7 1.1l-2.1.6c-.8.2-1 .1-1.2-.6l-.7-2.5c-.2-.6-.1-.9.7-1.1l2.1-.6c.7-.2 1-.1 1.2.6zm-2.6 3.5l2.6-.8-.8-2.6-2.5.8.7 2.6zM79.6 34.2l.1.6-2.4 3.2 2.8-.4.1.7-4.2.5-.1-.6 2.5-3.2-2.8.4-.1-.7 4.1-.5z"/></g></g></svg>